<svg width="46" height="45" viewBox="0 0 46 45" fill="none" xmlns="http://www.w3.org/2000/svg">
<path d="M45 14.3387V9.22213C45 6.49526 42.7894 4.28469 40.0626 4.28469H37.9297M45 14.3387V38.7028C45 41.4297 42.7894 43.6402 40.0626 43.6402H5.93744C3.21057 43.6402 1 41.4297 1 38.7028V14.3387M45 14.3387H1M1 14.3387V9.22213C1 6.49526 3.21057 4.28469 5.93744 4.28469H8.07026M12.3359 4.28469H14.4687H23H31.5313H33.6641M35.7969 4.28469V7.60476M35.7969 7.60476V4.4084V1.21204V7.60476ZM19.792 25.8891H26.2081C26.6626 25.8891 27.031 25.5207 27.031 25.0662V20.8181C27.031 20.3636 26.6626 19.9951 26.2081 19.9951H19.792C19.3376 19.9951 18.9691 20.3636 18.9691 20.8181V25.0662C18.9691 25.5207 19.3376 25.8891 19.792 25.8891ZM31.9608 25.8891H38.3769C38.8314 25.8891 39.1998 25.5207 39.1998 25.0662V20.8181C39.1998 20.3636 38.8314 19.9951 38.3769 19.9951H31.9608C31.5064 19.9951 31.1379 20.3636 31.1379 20.8181V25.0662C31.1379 25.5207 31.5064 25.8891 31.9608 25.8891ZM7.62303 25.8891H14.0391C14.4936 25.8891 14.862 25.5207 14.862 25.0662V20.8181C14.862 20.3636 14.4936 19.9951 14.0391 19.9951H7.62303C7.16855 19.9951 6.80012 20.3636 6.80012 20.8181V25.0662C6.80012 25.5207 7.16855 25.8891 7.62303 25.8891ZM19.7921 35.9562H26.2082C26.6627 35.9562 27.0311 35.5878 27.0311 35.1333V30.8852C27.0311 30.4307 26.6627 30.0623 26.2082 30.0623H19.7921C19.3377 30.0623 18.9692 30.4307 18.9692 30.8852V35.1333C18.9692 35.5878 19.3377 35.9562 19.7921 35.9562ZM31.9609 35.9562H38.377C38.8315 35.9562 39.1999 35.5878 39.1999 35.1333V30.8852C39.1999 30.4307 38.8315 30.0623 38.377 30.0623H31.9609C31.5065 30.0623 31.138 30.4307 31.138 30.8852V35.1333C31.138 35.5878 31.5065 35.9562 31.9609 35.9562ZM7.62313 35.9562H14.0392C14.4937 35.9562 14.8621 35.5878 14.8621 35.1333V30.8852C14.8621 30.4307 14.4937 30.0623 14.0392 30.0623H7.62313C7.16865 30.0623 6.80022 30.4307 6.80022 30.8852V35.1333C6.80022 35.5878 7.16865 35.9562 7.62313 35.9562ZM10.2031 4.28469V7.60476V1.21204V4.28469Z" stroke="white" stroke-width="2" stroke-linejoin="round"/>
</svg>
