<svg width="48" height="54" viewBox="0 0 48 54" fill="none" xmlns="http://www.w3.org/2000/svg">
<path d="M24 30.2404C31.8977 30.2404 38.3 23.8381 38.3 15.9404C38.3 8.04274 31.8977 1.64041 24 1.64041C16.1023 1.64041 9.7 8.04274 9.7 15.9404C9.7 23.8381 16.1023 30.2404 24 30.2404ZM24 30.2404C26.8891 30.2404 29.7499 30.8095 32.419 31.9151C35.0882 33.0207 37.5135 34.6412 39.5564 36.6841C41.5992 38.727 43.2197 41.1522 44.3254 43.8214C45.431 46.4905 46 49.3513 46 52.2404H2C2 49.3513 2.56905 46.4905 3.67465 43.8214C4.78025 41.1522 6.40076 38.727 8.44365 36.6841C10.4865 34.6412 12.9118 33.0207 15.581 31.9151C18.2501 30.8095 21.1109 30.2404 24 30.2404Z" stroke="white" stroke-width="3"/>
</svg>
