<svg width="48" height="52" viewBox="0 0 48 52" fill="none" xmlns="http://www.w3.org/2000/svg">
<path d="M47.3049 26.9903C47.8907 26.4045 47.8907 25.4547 47.3049 24.8689L37.759 15.323C37.1732 14.7372 36.2235 14.7372 35.6377 15.323C35.0519 15.9088 35.0519 16.8585 35.6377 17.4443L44.1229 25.9296L35.6377 34.4149C35.0519 35.0007 35.0519 35.9504 35.6377 36.5362C36.2234 37.122 37.1732 37.122 37.759 36.5362L47.3049 26.9903ZM3.74426 31.3217V20.5374H0.744263V31.3217H3.74426ZM20.4463 3.83533H24.4912V0.835327H20.4463V3.83533ZM24.4912 48.0238H20.4463V51.0238H24.4912V48.0238ZM0.744263 31.3217C0.744263 42.2029 9.56517 51.0238 20.4463 51.0238V48.0238C11.222 48.0238 3.74426 40.546 3.74426 31.3217H0.744263ZM3.74426 20.5374C3.74426 11.3131 11.222 3.83533 20.4463 3.83533V0.835327C9.56517 0.835327 0.744263 9.65623 0.744263 20.5374H3.74426ZM20.4463 27.4296L46.2443 27.4296L46.2443 24.4296L20.4463 24.4296L20.4463 27.4296Z" fill="white"/>
</svg>
