<svg width="30" height="28" viewBox="0 0 30 28" fill="none" xmlns="http://www.w3.org/2000/svg">
<g clip-path="url(#clip0)">
<path d="M29.2484 26.1794L20.7032 18.0456C22.324 16.141 23.2996 13.7196 23.2996 11.0834C23.2996 4.97203 18.0761 0 11.6556 0C5.23519 0 0.0117188 4.97203 0.0117188 11.0834C0.0117188 17.1947 5.23524 22.1667 11.6557 22.1667C14.4253 22.1667 16.9691 21.238 18.9701 19.6954L27.5153 27.8292C27.7547 28.0569 28.1426 28.0569 28.382 27.8292L29.2485 27.0044C29.4878 26.7765 29.4878 26.4072 29.2484 26.1794ZM11.6557 19.8334C6.58661 19.8334 2.4631 15.9084 2.4631 11.0834C2.4631 6.25834 6.58661 2.33336 11.6557 2.33336C16.7248 2.33336 20.8483 6.25834 20.8483 11.0834C20.8483 15.9084 16.7248 19.8334 11.6557 19.8334Z" fill="#2082E9"/>
</g>
<defs>
<clipPath id="clip0">
<rect width="29.4163" height="28" fill="white" transform="translate(0.0117188)"/>
</clipPath>
</defs>
</svg>
