<svg width="44" height="42" viewBox="0 0 44 42" fill="none" xmlns="http://www.w3.org/2000/svg">
<path d="M43.824 18.4816C43.6792 17.3761 43.054 16.4173 42.1062 15.8453C41.173 15.2825 40.0547 15.1816 39.0115 15.5703C38.1682 15.8893 37.2002 15.4511 36.8115 14.5821C36.3642 13.5848 35.816 12.6296 35.178 11.7423C34.6097 10.954 34.716 9.91995 35.4237 9.33695C36.267 8.64395 36.7382 7.61915 36.7162 6.52826C36.6942 5.41906 36.1699 4.39795 35.2825 3.72326C33.8195 2.61406 32.2245 1.69376 30.5397 0.984257C29.5039 0.547953 28.3544 0.608453 27.3827 1.14376C26.4275 1.67176 25.7785 2.58845 25.5989 3.66456C25.4467 4.57206 24.6071 5.17887 23.6281 5.07806C22.5574 4.96437 21.4428 4.96437 20.3739 5.07806C19.4041 5.18076 18.5552 4.57206 18.4031 3.66456C18.2234 2.58837 17.5744 1.66987 16.6193 1.14376C15.6458 0.606562 14.4945 0.547953 13.4623 0.984257C11.7756 1.69376 10.1806 2.61406 8.71759 3.72326C7.8302 4.39787 7.30769 5.41906 7.2857 6.52637C7.2637 7.61906 7.73489 8.64206 8.58 9.34056C9.2858 9.92176 9.39219 10.9558 8.8257 11.7441C8.18589 12.6314 7.6377 13.5866 7.19039 14.5839C6.80359 15.4547 5.8337 15.8911 4.9702 15.5647C3.95089 15.1852 2.8307 15.286 1.8957 15.847C0.946 16.4172 0.320891 17.3778 0.177891 18.4833C0.0605 19.3927 0 20.3222 0 21.2407C0 22.1592 0.0605 23.0887 0.176 23.9999C0.320805 25.1054 0.946 26.0642 1.8938 26.6362C2.827 27.1972 3.9435 27.2999 4.9885 26.9112C5.83 26.5904 6.798 27.0285 7.1885 27.8994C7.63581 28.8967 8.184 29.8519 8.822 30.7392C9.3903 31.5275 9.284 32.5615 8.5763 33.1445C7.733 33.8375 7.26181 34.8623 7.2838 35.9532C7.3058 37.0624 7.83011 38.0835 8.7175 38.7582C10.1805 39.8674 11.7755 40.7877 13.4603 41.4972C14.4961 41.9335 15.6438 41.873 16.6173 41.3377C17.5725 40.8097 18.2215 39.893 18.4011 38.8169C18.5533 37.9094 19.4003 37.3026 20.3719 37.4034C21.4407 37.5171 22.5554 37.5171 23.6261 37.4034C24.6069 37.3062 25.4448 37.9094 25.5969 38.8169C25.7766 39.8931 26.4256 40.8116 27.3807 41.3377C27.9234 41.6365 28.5174 41.7869 29.1187 41.7869C29.599 41.7869 30.0794 41.6897 30.5359 41.4972C32.2207 40.7877 33.8157 39.8655 35.2787 38.7582C36.1679 38.0854 36.6904 37.0624 36.7124 35.955C36.7344 34.8623 36.2632 33.8375 35.4199 33.1427C34.7141 32.5615 34.6077 31.5275 35.1742 30.7392C35.814 29.8519 36.3622 28.8967 36.8095 27.8994C37.1982 27.0286 38.1698 26.5941 39.0095 26.9112L39.0297 26.9185C40.0527 27.3017 41.171 27.1972 42.1042 26.6362C43.0539 26.0642 43.679 25.1054 43.822 23.998C43.9393 23.0795 43.9998 22.1537 43.9998 21.2407C44 20.3277 43.9395 19.4019 43.824 18.4816ZM42.0035 23.7652C41.9338 24.3097 41.6258 24.7845 41.1602 25.065C40.711 25.3382 40.1684 25.3858 39.655 25.1933L39.644 25.1896C37.895 24.5424 35.9205 25.4023 35.1377 27.1513C34.7417 28.035 34.254 28.8838 33.6875 29.6703C32.549 31.2543 32.7947 33.3571 34.2577 34.5598C34.6647 34.8953 34.892 35.3903 34.881 35.9183C34.87 36.4628 34.6133 36.9651 34.1733 37.2988C32.835 38.3145 31.372 39.1596 29.8265 39.8086C29.315 40.0249 28.743 39.9956 28.2663 39.7334C27.8061 39.4786 27.4926 39.0367 27.4065 38.5179C27.115 36.7744 25.6227 35.5607 23.8498 35.5607C23.7141 35.5607 23.5748 35.5662 23.4355 35.5772C22.4913 35.6762 21.5087 35.6762 20.5645 35.5772C18.6138 35.3554 16.907 36.635 16.5935 38.5124C16.5073 39.0312 16.1938 39.4749 15.7337 39.7279C15.2552 39.9919 14.685 40.0194 14.1717 39.8031C12.6262 39.1523 11.1632 38.3089 9.82489 37.2933C9.38489 36.9615 9.12819 36.4573 9.1172 35.9146C9.1062 35.3866 9.3335 34.8916 9.74239 34.5561C11.2054 33.3534 11.4492 31.2506 10.3107 29.6666C9.74419 28.8783 9.25839 28.0313 8.86239 27.1476C8.07769 25.3949 6.09589 24.5388 4.32309 25.1988C3.83359 25.3821 3.28909 25.3363 2.83989 25.0631C2.3742 24.7844 2.0662 24.3096 1.99659 23.7633C1.88839 22.931 1.83339 22.0803 1.83339 21.2406C1.83339 20.4009 1.88839 19.5503 1.99839 18.7161C2.06809 18.1716 2.37609 17.6968 2.8417 17.4163C3.289 17.145 3.8335 17.0955 4.345 17.288C6.09581 17.9407 8.07769 17.0845 8.8623 15.33C9.2583 14.4463 9.746 13.5993 10.3125 12.8128C11.451 11.2288 11.2053 9.12598 9.7423 7.92328C9.33531 7.58778 9.108 7.09278 9.119 6.56478C9.13 6.02028 9.3867 5.51798 9.8267 5.18428C11.165 4.16859 12.628 3.32528 14.1735 2.67448C14.685 2.45817 15.2552 2.48567 15.7337 2.74967C16.1939 3.00267 16.5074 3.44637 16.5935 3.96698C16.907 5.84428 18.6138 7.11117 20.5645 6.90217C21.5068 6.80317 22.4895 6.80317 23.4355 6.90217C25.3752 7.10937 27.093 5.84437 27.4065 3.96698C27.4927 3.44817 27.8062 3.00448 28.2663 2.75148C28.7448 2.48567 29.3131 2.45817 29.8283 2.67628C31.3738 3.32709 32.8368 4.17048 34.1751 5.18609C34.6151 5.51789 34.8718 6.02208 34.8828 6.56478C34.8938 7.09278 34.6665 7.58778 34.2576 7.92328C32.7946 9.12598 32.5508 11.2288 33.6893 12.8128C34.2558 13.6011 34.7416 14.4481 35.1376 15.3318C35.9223 17.0845 37.9059 17.9425 39.6769 17.2806C40.1682 17.0954 40.7091 17.1449 41.1601 17.4163C41.6258 17.6968 41.9338 18.1716 42.0034 18.7161C42.1116 19.5576 42.1666 20.4064 42.1666 21.2406C42.1667 22.0749 42.1117 22.9237 42.0035 23.7652Z" fill="white"/>
<path d="M22 12.0741C16.9455 12.0741 12.8333 16.1863 12.8333 21.2408C12.8333 26.2953 16.9455 30.4074 22 30.4074C27.0545 30.4074 31.1667 26.2952 31.1667 21.2407C31.1667 16.1862 27.0545 12.0741 22 12.0741ZM22 28.5741C17.9557 28.5741 14.6667 25.2851 14.6667 21.2408C14.6667 17.1964 17.9557 13.9074 22 13.9074C26.0443 13.9074 29.3333 17.1964 29.3333 21.2408C29.3333 25.2851 26.0443 28.5741 22 28.5741Z" fill="white"/>
</svg>
