<svg width="19" height="19" viewBox="0 0 19 19" fill="none" xmlns="http://www.w3.org/2000/svg">
<path d="M1.99316 0.630615H7.99316C8.26931 0.630615 8.49316 0.854473 8.49316 1.13062V7.13062C8.49316 7.40676 8.26931 7.63062 7.99316 7.63062H1.99316C1.71702 7.63062 1.49316 7.40676 1.49316 7.13062V1.13062C1.49316 0.854473 1.71702 0.630615 1.99316 0.630615ZM11.9932 0.630615H17.9932C18.2693 0.630615 18.4932 0.854473 18.4932 1.13062V7.13062C18.4932 7.40676 18.2693 7.63062 17.9932 7.63062H11.9932C11.717 7.63062 11.4932 7.40676 11.4932 7.13062V1.13062C11.4932 0.854473 11.717 0.630615 11.9932 0.630615ZM1.99316 10.6306H7.99316C8.26931 10.6306 8.49316 10.8545 8.49316 11.1306V17.1306C8.49316 17.4068 8.26931 17.6306 7.99316 17.6306H1.99316C1.71702 17.6306 1.49316 17.4068 1.49316 17.1306V11.1306C1.49316 10.8545 1.71702 10.6306 1.99316 10.6306ZM11.9932 10.6306H17.9932C18.2693 10.6306 18.4932 10.8545 18.4932 11.1306V17.1306C18.4932 17.4068 18.2693 17.6306 17.9932 17.6306H11.9932C11.717 17.6306 11.4932 17.4068 11.4932 17.1306V11.1306C11.4932 10.8545 11.717 10.6306 11.9932 10.6306Z" fill="white" stroke="#2082E9"/>
</svg>
