<svg width="80" height="110" viewBox="0 0 80 110" fill="none" xmlns="http://www.w3.org/2000/svg">
<path d="M65.4591 47.8051V51.5583C65.6346 50.7016 66.4068 48.7515 68.0917 47.8051C69.7766 46.8587 70.5488 45.3775 70.7243 44.7551C72.0626 45.0762 74.897 45.5256 75.5288 44.7551C73.2121 42.8451 72.0187 42.4836 71.7116 42.5416C69.2896 43.542 66.5341 46.4674 65.4591 47.8051Z" fill="white"/>
<path d="M67.631 49.5838L67.889 49.6171C68.1721 49.5212 68.6303 49.3465 69.3422 49.0533C71.3956 48.2076 71.7774 49.4057 71.7116 50.1104L67.889 49.6171C67.3557 49.7978 67.4447 49.6985 67.631 49.5838Z" fill="white"/>
<path d="M56.5082 67.4198C52.3487 66.471 52.7271 63.4704 53.4363 62.0887C53.9181 65.5638 55.0707 66.1254 55.5868 65.9718C62.3482 66.0771 61.1244 66.6739 59.6674 66.9591L56.5082 67.4198Z" fill="white"/>
<path d="M55.5868 73.2115L47.2941 73.6064L56.5082 76.5681L58.8776 75.0543L55.5868 73.2115Z" fill="white"/>
<path d="M51.243 78.74C52.0986 78.3671 54.5338 77.8449 57.4296 78.74C61.0495 79.8589 51.7037 79.6614 51.243 78.74Z" fill="white"/>
<path fill-rule="evenodd" clip-rule="evenodd" d="M37.7914 44.7551C38.5789 45.9276 41.8846 48.7051 48.8076 50.4359C49.2081 50.1041 50.5741 49.363 52.834 49.0533C55.094 48.7436 54.1772 46.6777 53.4363 45.6834L55.1434 45.5681C52.7975 40.9322 42.5979 43.0945 37.7914 44.7551ZM48.0563 49.0533C44.234 48.3415 43.7737 46.6198 44.0214 45.8479C44.8886 45.5829 45.5069 46.6007 45.7076 47.1427C47.177 48.3101 48.1065 47.87 48.3875 47.504L49.7726 45.336C51.1457 43.9629 52.7872 46.41 53.4363 47.8051C51.0196 47.5642 48.8426 48.5369 48.0563 49.0533Z" fill="white"/>
<path fill-rule="evenodd" clip-rule="evenodd" d="M6.51509 32.8286C4.20309 34.0616 1.31313 39.1223 0.15715 41.4985C-0.281097 40.405 -0.0657359 37.0269 4.30169 32.2629C4.95926 31.5012 7.25615 29.9045 11.1832 29.6109C16.0919 29.2439 23.379 27.1716 23.4504 26.3078C23.9054 20.4356 24.7594 17.2855 25.1295 16.4444C26.1939 12.5541 32.4239 12.4073 35.4058 12.8202C36.5986 12.9425 38.7456 14.1231 37.7914 17.8666C36.8372 21.6101 33.3261 24.8092 31.6898 25.9408C31.0986 26.2749 30.1231 26.8139 28.9559 27.4384C28.9757 32.0969 30.0607 37.741 30.6007 39.9808L39.1103 24.5235C39.9691 23.6019 40.3798 21.8494 40.8019 20.0485C41.4651 17.2188 42.1563 14.2696 44.6577 14.2367C47.9322 14.1936 47.3147 24.8877 46.5965 30.2401L54.6752 12.8202C51.2676 12.0152 52.2074 10.4811 54.8784 6.12094C55.1203 5.72612 55.3764 5.30812 55.6447 4.86539C58.2299 0.599839 60.6714 2.87265 61.5691 4.54225C61.3619 5.77226 60.8967 7.21918 60.3013 8.71581C64.5548 7.21087 68.451 2.27821 69.8674 0C69.7688 2.97658 62.6464 8.88596 59.0975 11.4686C57.8837 14.0381 56.5162 16.4536 55.6447 17.8666L47.1351 36.1569C46.6507 36.7734 46.223 37.2111 45.8463 37.5046C58.0427 38.8351 60.5648 41.8823 60.3013 43.2396C57.8432 42.6841 52.4091 41.3218 50.3376 40.3162C48.266 39.3106 44.7902 38.7072 43.3112 38.5313C43.2824 38.3873 43.4081 38.04 44.1415 37.802C43.5875 37.3788 43.3548 36.348 43.3112 35.5106L43.6882 21.9922C42.1802 25.7332 34.7196 38.7262 31.1778 44.7551L35.2223 68.6058C37.2409 78.0379 36.9504 89.5713 36.5528 94.1589C35.9288 103.958 30.2371 108.64 27.4692 109.757C34.3323 104.619 34.2436 93.4249 33.3414 88.4702C32.8062 84.3413 31.4238 74.1843 30.1759 66.5872C28.9281 58.9901 27.2093 52.9925 26.5058 50.9434C22.6889 57.256 18.0646 60.1492 16.2296 60.8068C21.2576 58.201 24.9919 51.4633 26.2306 48.4202C25.0562 45.3373 23.8878 35.0156 23.4504 30.2401C20.2661 31.7539 13.4017 32.2194 10.3675 32.2629C7.9924 32.1324 6.8096 32.5856 6.51509 32.8286ZM59.0975 11.4686C60.687 10.582 63.9074 8.68439 64.0734 8.18638C64.2809 7.56388 71.1699 8.35973 71.3359 11.4686C71.4687 13.9556 72.7469 19.7511 73.3694 22.3379C74.3101 24.9386 76.5898 30.5633 78.1834 32.2565C78.4324 32.2427 78.9138 31.8913 78.8474 30.5965C78.781 29.3017 79.4838 28.5353 79.8434 28.314C80.1201 30.057 80.2253 33.709 78.4324 34.373C76.6396 35.037 73.5631 30.4443 72.2489 28.065C71.3912 25.8793 69.6261 20.6696 69.4269 17.3164C67.4379 18.5798 62.8281 21.1952 60.3013 21.5494C57.1428 21.9922 58.8444 31.2605 59.9649 31.219C60.6427 31.5233 62.7786 32.0075 65.8994 31.5095C67.5594 29.9491 69.4961 28.9226 70.2569 28.6045C69.4684 29.4206 67.6922 31.3684 66.8954 32.63C66.0986 33.8916 63.0125 34.3177 61.5691 34.373C59.7866 34.5528 56.1062 33.7671 55.6447 29.1855C55.1832 24.6039 56.3405 21.6324 56.9768 20.7194C57.5855 19.6128 60.0396 17.2666 64.9864 16.7354C69.9332 16.2042 69.2886 13.4984 68.3479 12.2119C67.5857 11.1353 65.3649 9.30504 62.5794 10.597C59.7939 11.8889 59.0975 11.7163 59.0975 11.4686ZM29.2125 22.4542C29.2278 21.7355 29.3869 19.8117 29.9007 17.8666C30.6806 17.5913 32.4422 17.0959 33.2497 17.3161C34.0571 17.5363 30.8947 20.8332 29.2125 22.4542ZM58.0758 5.64677L54.4081 11.0074C54.6731 11.1869 55.4084 11.3562 56.2291 10.597C57.0499 9.83777 57.8023 6.98051 58.0758 5.64677Z" fill="white"/>
</svg>
